<?xml version="1.0" encoding="utf-8"?>
<!-- Generator: Adobe Illustrator 17.0.1, SVG Export Plug-In . SVG Version: 6.00 Build 0)  -->
<!DOCTYPE svg PUBLIC "-//W3C//DTD SVG 1.1//EN" "http://www.w3.org/Graphics/SVG/1.1/DTD/svg11.dtd">
<svg version="1.1" id="Capa_1" xmlns="http://www.w3.org/2000/svg" xmlns:xlink="http://www.w3.org/1999/xlink" x="0px" y="0px"
	 width="254.149px" height="177.025px" viewBox="0 0 254.149 177.025" enable-background="new 0 0 254.149 177.025"
	 xml:space="preserve">
<g enable-background="new    ">
	<path d="M131.69,127.514h-23.365V64.673c0-6.786,0.293-14.282,0.879-22.485h-0.586c-1.221,6.445-2.32,11.085-3.296,13.916
		l-24.609,71.411H61.377L36.328,56.836c-0.685-1.904-1.783-6.786-3.296-14.648h-0.659c0.634,10.353,0.952,19.435,0.952,27.246
		v58.081H12.012V22.485h34.644l21.46,62.256c1.708,4.98,2.954,9.986,3.735,15.015h0.439c1.318-5.811,2.71-10.864,4.175-15.161
		l21.46-62.109h33.765V127.514z"/>
	<path d="M155.567,127.514V22.485h37.207c37.305,0,55.957,17.065,55.957,51.196c0,16.358-5.09,29.419-15.271,39.185
		c-10.18,9.767-23.742,14.648-40.686,14.648H155.567z M179.224,41.748v66.577h11.719c10.254,0,18.298-3.076,24.134-9.229
		c5.834-6.152,8.752-14.526,8.752-25.122c0-10.009-2.893-17.883-8.68-23.62c-5.785-5.737-13.904-8.606-24.353-8.606H179.224z"/>
</g>
</svg>
